<?xml version="1.0" encoding="utf-8"?>
<!-- Generator: Adobe Illustrator 17.1.0, SVG Export Plug-In . SVG Version: 6.00 Build 0)  -->
<!DOCTYPE svg PUBLIC "-//W3C//DTD SVG 1.1//EN" "http://www.w3.org/Graphics/SVG/1.1/DTD/svg11.dtd">
<svg version="1.1" id="Interface" xmlns="http://www.w3.org/2000/svg" xmlns:xlink="http://www.w3.org/1999/xlink" x="0px" y="0px"
	 viewBox="0 0 16 16" style="enable-background:new 0 0 16 16;" xml:space="preserve">
<path id="Cog" d="M16,8.953V7.24l-2.086-0.174c-0.066-0.372-0.167-0.731-0.299-1.073l1.684-1.244L14.481,3.31l-1.923,0.901
	c-0.184-0.215-0.384-0.413-0.595-0.6l0.806-1.919l-1.48-0.876L9.914,2.425C9.665,2.34,9.409,2.27,9.146,2.217L8.876,0H7.124
	l-0.28,2.213c-0.24,0.045-0.476,0.104-0.706,0.178l-1.262-1.71L3.31,1.596l0.873,1.853c-0.245,0.199-0.47,0.42-0.681,0.654
	L1.576,3.31l-0.914,1.46l1.62,1.398c-0.08,0.231-0.15,0.468-0.202,0.709L0,7.085v1.829l2.041,0.251
	c0.046,0.27,0.105,0.533,0.186,0.788l-1.564,1.374l0.896,1.519l1.787-0.85c0.21,0.253,0.443,0.485,0.691,0.7L3.31,14.481
	l1.401,0.953l1.255-1.616c0.294,0.103,0.597,0.188,0.909,0.245L7.124,16h1.772l0.237-1.941c0.336-0.065,0.66-0.162,0.975-0.282
	l1.182,1.658l1.48-0.935l-0.803-1.842c0.267-0.236,0.514-0.493,0.736-0.773l1.896,0.96l0.7-1.519l-1.568-1.363
	c0.075-0.234,0.133-0.475,0.179-0.721L16,8.953z M5.081,8.137c0-1.613,1.307-2.92,2.919-2.92s2.92,1.307,2.92,2.92
	c0,1.612-1.308,2.92-2.92,2.92S5.081,9.749,5.081,8.137z"/>
</svg>
