<?xml version="1.0" encoding="utf-8"?>
<!-- Generator: Adobe Illustrator 17.1.0, SVG Export Plug-In . SVG Version: 6.00 Build 0)  -->
<!DOCTYPE svg PUBLIC "-//W3C//DTD SVG 1.1//EN" "http://www.w3.org/Graphics/SVG/1.1/DTD/svg11.dtd">
<svg version="1.1" id="Interface" xmlns="http://www.w3.org/2000/svg" xmlns:xlink="http://www.w3.org/1999/xlink" x="0px" y="0px"
	 viewBox="0 0 16 16" style="enable-background:new 0 0 16 16;" xml:space="preserve">
<g id="Loader">
	<path d="M9.5,0.145v2.313c2.445,0.682,4.385,3.025,4.385,5.613c0,3.074-2.74,5.814-5.814,5.814c-3.077,0-5.814-2.74-5.814-5.814
		c0-2.538,1.863-4.844,4.242-5.575V0.146C2.799,0.849,0,4.096,0,7.999c0,4.418,3.582,8,8.002,8c4.415,0,7.998-3.582,7.998-8
		C16,4.095,13.199,0.847,9.5,0.145z"/>
	<path d="M8.119,0.006C8.08,0.005,8.042,0,8.002,0S7.924,0.005,7.885,0.006H8.119z"/>
</g>
</svg>
