<?xml version="1.0" encoding="utf-8"?>
<!-- Generator: Adobe Illustrator 17.1.0, SVG Export Plug-In . SVG Version: 6.00 Build 0)  -->
<!DOCTYPE svg PUBLIC "-//W3C//DTD SVG 1.1//EN" "http://www.w3.org/Graphics/SVG/1.1/DTD/svg11.dtd">
<svg version="1.1" id="Interface" xmlns="http://www.w3.org/2000/svg" xmlns:xlink="http://www.w3.org/1999/xlink" x="0px" y="0px"
	 viewBox="0 0 16 16" style="enable-background:new 0 0 16 16;" xml:space="preserve">
<g id="Mail_1">
	<polygon points="0,3.985 0,12.195 4.452,7.271 	"/>
	<path d="M16,11.91V3.886c0-0.027-0.152-0.051-0.154-0.079l-4.561,3.517L16,11.91z"/>
	<path d="M15.207,3.044c-0.229-0.188-0.521-0.111-0.84-0.111H1.371c-0.375,0-0.715-0.037-0.958,0.212l7.433,5.484L15.207,3.044z"/>
	<path d="M7.856,9.76L5.339,7.9l-4.828,5.205c0.234,0.194,0.531,0.181,0.86,0.181h12.996c0.41,0,0.773-0.05,1.019-0.341L10.213,7.9
		L7.856,9.76z"/>
</g>
</svg>
