<svg xmlns="http://www.w3.org/2000/svg" viewBox="0 0 16 16" enable-background="new 0 0 16 16"><path d="M16 8.953v-1.713l-2.086-.174c-.066-.372-.167-.731-.299-1.073l1.684-1.244-.818-1.439-1.923.901c-.184-.215-.384-.413-.595-.6l.806-1.919-1.48-.876-1.375 1.609c-.249-.085-.505-.155-.768-.208l-.27-2.217h-1.752l-.28 2.213c-.24.045-.476.104-.706.178l-1.262-1.71-1.566.915.873 1.853c-.245.199-.47.42-.681.654l-1.926-.793-.914 1.46 1.62 1.398c-.08.231-.15.468-.202.709l-2.08.208v1.829l2.041.251c.046.27.105.533.186.788l-1.564 1.374.896 1.519 1.787-.85c.21.253.443.485.691.7l-.727 1.785 1.401.953 1.255-1.616c.294.103.597.188.909.245l.249 1.937h1.772l.237-1.941c.336-.065.66-.162.975-.282l1.182 1.658 1.48-.935-.803-1.842c.267-.236.514-.493.736-.773l1.896.96.7-1.519-1.568-1.363c.075-.234.133-.475.179-.721l2.09-.289zm-10.919-.816c0-1.613 1.307-2.92 2.919-2.92s2.92 1.307 2.92 2.92c0 1.612-1.308 2.92-2.92 2.92s-2.919-1.308-2.919-2.92z"/></svg>