<svg xmlns="http://www.w3.org/2000/svg">
	<symbol viewBox="0 0 16 16" id="ui_checkmark">
		<title>ui_checkmark</title>
		<path d="M13.89 2.004l-7.766 7.767-4.015-4.014-2.109 2.109 4.015 4.015-.008.006 2.109 2.109 9.884-9.883z" />
	</symbol>
	<symbol viewBox="0 0 16 16" id="ui_close">
		<title>ui_close</title>
		<path d="M16 .354l-.355-.354-7.645 7.646-7.646-7.646-.354.354 7.645 7.646-7.645 7.646.354.354 7.646-7.646 7.645 7.646.355-.354-7.646-7.646z" />
	</symbol>
	<symbol viewBox="0 0 16 16" id="ui_cog">
		<title>ui_cog</title>
		<path d="M16 8.953v-1.713l-2.086-.174c-.066-.372-.167-.731-.299-1.073l1.684-1.244-.818-1.439-1.923.901c-.184-.215-.384-.413-.595-.6l.806-1.919-1.48-.876-1.375 1.609c-.249-.085-.505-.155-.768-.208l-.27-2.217h-1.752l-.28 2.213c-.24.045-.476.104-.706.178l-1.262-1.71-1.566.915.873 1.853c-.245.199-.47.42-.681.654l-1.926-.793-.914 1.46 1.62 1.398c-.08.231-.15.468-.202.709l-2.08.208v1.829l2.041.251c.046.27.105.533.186.788l-1.564 1.374.896 1.519 1.787-.85c.21.253.443.485.691.7l-.727 1.785 1.401.953 1.255-1.616c.294.103.597.188.909.245l.249 1.937h1.772l.237-1.941c.336-.065.66-.162.975-.282l1.182 1.658 1.48-.935-.803-1.842c.267-.236.514-.493.736-.773l1.896.96.7-1.519-1.568-1.363c.075-.234.133-.475.179-.721l2.09-.289zm-10.919-.816c0-1.613 1.307-2.92 2.919-2.92s2.92 1.307 2.92 2.92c0 1.612-1.308 2.92-2.92 2.92s-2.919-1.308-2.919-2.92z"
		/>
	</symbol>
	<symbol viewBox="0 0 16 16" id="ui_creditcard">
		<title>ui_creditcard</title>
		<g>
			<path d="M0 12.655c0 .495.4.894.893.894h14.214c.493 0 .893-.4.893-.894v-5.708h-16v5.708zm10.686-3.575h3.629v2.762h-3.629v-2.762zM15.107 2.451h-14.214c-.493 0-.893.401-.893.893v1.336h16v-1.336c0-.492-.4-.893-.893-.893z" />
		</g>
	</symbol>
	<symbol viewBox="0 0 16 16" id="ui_loader">
		<title>ui_loader</title>
		<g>
			<path d="M9.5.145v2.313c2.445.682 4.385 3.025 4.385 5.613 0 3.074-2.74 5.814-5.814 5.814-3.077 0-5.814-2.74-5.814-5.814 0-2.538 1.863-4.844 4.242-5.575v-2.35c-3.7.703-6.499 3.95-6.499 7.853 0 4.418 3.582 8 8.002 8 4.415 0 7.998-3.582 7.998-8 0-3.904-2.801-7.152-6.5-7.854zM8.119.006l-.117-.006-.117.006h.234z"
			/>
		</g>
	</symbol>
	<symbol viewBox="0 0 16 16" id="ui_mail">
		<title>ui_mail</title>
		<g>
			<path d="M0 3.985v8.21l4.452-4.924zM16 11.91v-8.024l-.154-.079-4.561 3.517 4.715 4.586zM15.207 3.044c-.229-.188-.521-.111-.84-.111h-12.996c-.375 0-.715-.037-.958.212l7.433 5.484 7.361-5.585zM7.856 9.76l-2.517-1.86-4.828 5.205c.234.194.531.181.86.181h12.996c.41 0 .773-.05 1.019-.341l-5.173-5.045-2.357 1.86z"
			/>
		</g>
	</symbol>
</svg>